G75*
G70*
%OFA0B0*%
%FSLAX24Y24*%
%IPPOS*%
%LPD*%
%AMOC8*
5,1,8,0,0,1.08239X$1,22.5*
%
%ADD10OC8,0.0520*%
%ADD11OC8,0.0630*%
%ADD12C,0.0630*%
%ADD13C,0.0600*%
%ADD14C,0.0160*%
%ADD15R,0.1502X0.1502*%
%ADD16C,0.0400*%
D10*
X004681Y001681D03*
X005681Y003431D03*
X005181Y004181D03*
X006181Y004181D03*
X006681Y006681D03*
X005181Y007181D03*
X007681Y009181D03*
X009681Y007681D03*
X010681Y006681D03*
X010181Y005181D03*
X013181Y005181D03*
X015181Y005181D03*
X014181Y003681D03*
X014181Y002681D03*
X010181Y001181D03*
X008681Y001681D03*
X011681Y008681D03*
X010931Y009181D03*
X011681Y009681D03*
X013181Y009181D03*
X015181Y009181D03*
X014681Y010681D03*
X013681Y010681D03*
X009681Y011681D03*
X007681Y011181D03*
X005181Y011181D03*
D11*
X003181Y010181D03*
D12*
X003181Y009181D03*
D13*
X002981Y006681D02*
X002381Y006681D01*
X002381Y005681D02*
X002981Y005681D01*
X002981Y004681D02*
X002381Y004681D01*
X002381Y003681D02*
X002981Y003681D01*
X002981Y002681D02*
X002381Y002681D01*
X016881Y005181D02*
X017481Y005181D01*
X017481Y006181D02*
X016881Y006181D01*
X016881Y007181D02*
X017481Y007181D01*
X017481Y008181D02*
X016881Y008181D01*
D14*
X000661Y012981D02*
X000661Y000661D01*
X009881Y000661D01*
X009601Y000941D01*
X009601Y001422D01*
X009941Y001761D01*
X010422Y001761D01*
X010482Y001701D01*
X012466Y001701D01*
X013601Y002837D01*
X013601Y002922D01*
X013841Y003161D01*
X010897Y003161D01*
X009261Y001526D01*
X009261Y001441D01*
X008922Y001101D01*
X008441Y001101D01*
X008101Y001441D01*
X008101Y001922D01*
X008441Y002261D01*
X008526Y002261D01*
X010241Y003976D01*
X010387Y004122D01*
X010578Y004201D01*
X013881Y004201D01*
X013941Y004261D01*
X014422Y004261D01*
X014482Y004201D01*
X016966Y004201D01*
X017326Y004561D01*
X016758Y004561D01*
X016530Y004656D01*
X016525Y004661D01*
X015482Y004661D01*
X015422Y004601D01*
X014941Y004601D01*
X014881Y004661D01*
X013482Y004661D01*
X013422Y004601D01*
X012941Y004601D01*
X012881Y004661D01*
X010482Y004661D01*
X010422Y004601D01*
X009941Y004601D01*
X009889Y004654D01*
X008976Y003741D01*
X008785Y003661D01*
X008578Y003661D01*
X006482Y003661D01*
X006422Y003601D01*
X006261Y003601D01*
X006261Y003191D01*
X006201Y003131D01*
X006201Y003078D01*
X006122Y002887D01*
X005976Y002741D01*
X005209Y001974D01*
X005261Y001922D01*
X005261Y001441D01*
X004922Y001101D01*
X004441Y001101D01*
X004101Y001441D01*
X004101Y001922D01*
X004161Y001982D01*
X004161Y002078D01*
X004161Y002285D01*
X004241Y002476D01*
X005101Y003337D01*
X005101Y003366D01*
X004976Y003241D01*
X004785Y003161D01*
X004578Y003161D01*
X003378Y003161D01*
X003507Y003033D01*
X003601Y002805D01*
X003601Y002558D01*
X003507Y002330D01*
X003333Y002156D01*
X003105Y002061D01*
X002258Y002061D01*
X002030Y002156D01*
X001856Y002330D01*
X001761Y002558D01*
X001761Y002805D01*
X001856Y003033D01*
X002005Y003181D01*
X001856Y003330D01*
X001761Y003558D01*
X001761Y003805D01*
X001856Y004033D01*
X002005Y004181D01*
X001856Y004330D01*
X001761Y004558D01*
X001761Y004805D01*
X001856Y005033D01*
X002005Y005181D01*
X001856Y005330D01*
X001761Y005558D01*
X001761Y005805D01*
X001856Y006033D01*
X002030Y006207D01*
X002258Y006301D01*
X003105Y006301D01*
X003161Y006278D01*
X003161Y007578D01*
X003161Y007785D01*
X003241Y007976D01*
X004887Y009622D01*
X005078Y009701D01*
X005285Y009701D01*
X007381Y009701D01*
X007441Y009761D01*
X007922Y009761D01*
X008261Y009422D01*
X008261Y008941D01*
X008201Y008881D01*
X008201Y007578D01*
X008122Y007387D01*
X007976Y007241D01*
X007261Y006526D01*
X007261Y006441D01*
X006922Y006101D01*
X006441Y006101D01*
X006101Y006441D01*
X006101Y006922D01*
X006441Y007261D01*
X006526Y007261D01*
X007161Y007897D01*
X007161Y008661D01*
X005397Y008661D01*
X004201Y007466D01*
X004201Y005285D01*
X004201Y005078D01*
X004122Y004887D01*
X003622Y004387D01*
X003622Y004387D01*
X003476Y004241D01*
X003381Y004201D01*
X004466Y004201D01*
X004601Y004337D01*
X004601Y004422D01*
X004661Y004482D01*
X004661Y006881D01*
X004601Y006941D01*
X004601Y007422D01*
X004941Y007761D01*
X005422Y007761D01*
X005761Y007422D01*
X005761Y006941D01*
X005701Y006881D01*
X005701Y004522D01*
X005941Y004761D01*
X006422Y004761D01*
X006482Y004701D01*
X008466Y004701D01*
X009241Y005476D01*
X009387Y005622D01*
X009578Y005701D01*
X009881Y005701D01*
X009941Y005761D01*
X010422Y005761D01*
X010482Y005701D01*
X012881Y005701D01*
X012941Y005761D01*
X013422Y005761D01*
X013482Y005701D01*
X014881Y005701D01*
X014941Y005761D01*
X015422Y005761D01*
X015482Y005701D01*
X016525Y005701D01*
X016530Y005707D01*
X016758Y005801D01*
X017605Y005801D01*
X017661Y005778D01*
X017661Y006585D01*
X017605Y006561D01*
X016758Y006561D01*
X016530Y006656D01*
X016525Y006661D01*
X015078Y006661D01*
X014887Y006741D01*
X014741Y006887D01*
X013026Y008601D01*
X012941Y008601D01*
X012601Y008941D01*
X012601Y009026D01*
X012466Y009161D01*
X011982Y009161D01*
X011922Y009101D01*
X011511Y009101D01*
X011511Y008941D01*
X011172Y008601D01*
X010691Y008601D01*
X010631Y008661D01*
X010397Y008661D01*
X010201Y008466D01*
X010201Y007982D01*
X010261Y007922D01*
X010261Y007837D01*
X010837Y007261D01*
X010922Y007261D01*
X011261Y006922D01*
X011261Y006441D01*
X010922Y006101D01*
X010441Y006101D01*
X010101Y006441D01*
X010101Y006526D01*
X009526Y007101D01*
X009441Y007101D01*
X009101Y007441D01*
X009101Y007922D01*
X009161Y007982D01*
X009161Y008578D01*
X009161Y008785D01*
X009241Y008976D01*
X009741Y009476D01*
X009741Y009476D01*
X009887Y009622D01*
X010078Y009701D01*
X010631Y009701D01*
X010691Y009761D01*
X011101Y009761D01*
X011101Y009922D01*
X011441Y010261D01*
X011922Y010261D01*
X011982Y010201D01*
X012466Y010201D01*
X013101Y010837D01*
X013101Y010922D01*
X013441Y011261D01*
X013922Y011261D01*
X014181Y011002D01*
X014441Y011261D01*
X014922Y011261D01*
X015261Y010922D01*
X015261Y010441D01*
X015201Y010381D01*
X015201Y009897D01*
X015337Y009761D01*
X015422Y009761D01*
X015761Y009422D01*
X015761Y008941D01*
X015422Y008601D01*
X014941Y008601D01*
X014601Y008941D01*
X014601Y009026D01*
X014241Y009387D01*
X014161Y009578D01*
X014161Y009785D01*
X014161Y010341D01*
X013922Y010101D01*
X013837Y010101D01*
X013459Y009724D01*
X013761Y009422D01*
X013761Y009337D01*
X015397Y007701D01*
X016485Y007701D01*
X016356Y007830D01*
X016261Y008058D01*
X016261Y008305D01*
X016356Y008533D01*
X016530Y008707D01*
X016758Y008801D01*
X017605Y008801D01*
X017833Y008707D01*
X017876Y008664D01*
X017976Y008622D01*
X018476Y008122D01*
X018622Y007976D01*
X018701Y007785D01*
X018701Y004785D01*
X018701Y004578D01*
X018622Y004387D01*
X017622Y003387D01*
X017476Y003241D01*
X017285Y003161D01*
X014522Y003161D01*
X014761Y002922D01*
X014761Y002441D01*
X014422Y002101D01*
X014337Y002101D01*
X013122Y000887D01*
X012976Y000741D01*
X012785Y000661D01*
X010482Y000661D01*
X010482Y000661D01*
X019201Y000661D01*
X019201Y012981D01*
X000661Y012981D01*
X000661Y012865D02*
X019201Y012865D01*
X019201Y012706D02*
X000661Y012706D01*
X000661Y012548D02*
X019201Y012548D01*
X019201Y012389D02*
X000661Y012389D01*
X000661Y012231D02*
X019201Y012231D01*
X019201Y012072D02*
X000661Y012072D01*
X000661Y011914D02*
X019201Y011914D01*
X019201Y011755D02*
X007928Y011755D01*
X007922Y011761D02*
X007441Y011761D01*
X007381Y011701D01*
X005482Y011701D01*
X005422Y011761D01*
X004941Y011761D01*
X004881Y011701D01*
X003578Y011701D01*
X003387Y011622D01*
X003241Y011476D01*
X002741Y010976D01*
X002661Y010785D01*
X002661Y010578D01*
X002661Y010559D01*
X002546Y010444D01*
X002546Y009918D01*
X002918Y009546D01*
X003444Y009546D01*
X003816Y009918D01*
X003816Y010444D01*
X003748Y010513D01*
X003897Y010661D01*
X004881Y010661D01*
X004941Y010601D01*
X005422Y010601D01*
X005482Y010661D01*
X007381Y010661D01*
X007441Y010601D01*
X007922Y010601D01*
X008261Y010941D01*
X008261Y011422D01*
X007922Y011761D01*
X008086Y011597D02*
X019201Y011597D01*
X019201Y011438D02*
X008245Y011438D01*
X008261Y011279D02*
X019201Y011279D01*
X019201Y011121D02*
X015062Y011121D01*
X015221Y010962D02*
X019201Y010962D01*
X019201Y010804D02*
X015261Y010804D01*
X015261Y010645D02*
X019201Y010645D01*
X019201Y010487D02*
X015261Y010487D01*
X015201Y010328D02*
X019201Y010328D01*
X019201Y010170D02*
X015201Y010170D01*
X015201Y010011D02*
X019201Y010011D01*
X019201Y009853D02*
X015246Y009853D01*
X015489Y009694D02*
X019201Y009694D01*
X019201Y009535D02*
X015648Y009535D01*
X015761Y009377D02*
X019201Y009377D01*
X019201Y009218D02*
X015761Y009218D01*
X015761Y009060D02*
X019201Y009060D01*
X019201Y008901D02*
X015721Y008901D01*
X015563Y008743D02*
X016617Y008743D01*
X016407Y008584D02*
X014514Y008584D01*
X014672Y008426D02*
X016312Y008426D01*
X016261Y008267D02*
X014831Y008267D01*
X014990Y008109D02*
X016261Y008109D01*
X016306Y007950D02*
X015148Y007950D01*
X015307Y007791D02*
X016394Y007791D01*
X017746Y008743D02*
X019201Y008743D01*
X019201Y008584D02*
X018014Y008584D01*
X018172Y008426D02*
X019201Y008426D01*
X019201Y008267D02*
X018331Y008267D01*
X018490Y008109D02*
X019201Y008109D01*
X019201Y007950D02*
X018633Y007950D01*
X018699Y007791D02*
X019201Y007791D01*
X019201Y007633D02*
X018701Y007633D01*
X018701Y007474D02*
X019201Y007474D01*
X019201Y007316D02*
X018701Y007316D01*
X018701Y007157D02*
X019201Y007157D01*
X019201Y006999D02*
X018701Y006999D01*
X018701Y006840D02*
X019201Y006840D01*
X019201Y006682D02*
X018701Y006682D01*
X018701Y006523D02*
X019201Y006523D01*
X019201Y006365D02*
X018701Y006365D01*
X018701Y006206D02*
X019201Y006206D01*
X019201Y006048D02*
X018701Y006048D01*
X018701Y005889D02*
X019201Y005889D01*
X019201Y005730D02*
X018701Y005730D01*
X018701Y005572D02*
X019201Y005572D01*
X019201Y005413D02*
X018701Y005413D01*
X018701Y005255D02*
X019201Y005255D01*
X019201Y005096D02*
X018701Y005096D01*
X018701Y004938D02*
X019201Y004938D01*
X019201Y004779D02*
X018701Y004779D01*
X018701Y004621D02*
X019201Y004621D01*
X019201Y004462D02*
X018653Y004462D01*
X018539Y004304D02*
X019201Y004304D01*
X019201Y004145D02*
X018380Y004145D01*
X018222Y003986D02*
X019201Y003986D01*
X019201Y003828D02*
X018063Y003828D01*
X017905Y003669D02*
X019201Y003669D01*
X019201Y003511D02*
X017746Y003511D01*
X017588Y003352D02*
X019201Y003352D01*
X019201Y003194D02*
X017363Y003194D01*
X017068Y004304D02*
X009539Y004304D01*
X009697Y004462D02*
X017227Y004462D01*
X016615Y004621D02*
X015441Y004621D01*
X014922Y004621D02*
X013441Y004621D01*
X012922Y004621D02*
X010441Y004621D01*
X009922Y004621D02*
X009856Y004621D01*
X009380Y004145D02*
X010442Y004145D01*
X010251Y003986D02*
X009222Y003986D01*
X009063Y003828D02*
X010093Y003828D01*
X009934Y003669D02*
X008804Y003669D01*
X009458Y003194D02*
X006261Y003194D01*
X006261Y003352D02*
X009617Y003352D01*
X009775Y003511D02*
X006261Y003511D01*
X006184Y003035D02*
X009300Y003035D01*
X009141Y002877D02*
X006112Y002877D01*
X005953Y002718D02*
X008983Y002718D01*
X008824Y002560D02*
X005795Y002560D01*
X005636Y002401D02*
X008666Y002401D01*
X008422Y002242D02*
X005478Y002242D01*
X005319Y002084D02*
X008264Y002084D01*
X008105Y001925D02*
X005258Y001925D01*
X005261Y001767D02*
X008101Y001767D01*
X008101Y001608D02*
X005261Y001608D01*
X005261Y001450D02*
X008101Y001450D01*
X008251Y001291D02*
X005111Y001291D01*
X004953Y001133D02*
X008410Y001133D01*
X008953Y001133D02*
X009601Y001133D01*
X009601Y001291D02*
X009111Y001291D01*
X009261Y001450D02*
X009630Y001450D01*
X009788Y001608D02*
X009344Y001608D01*
X009502Y001767D02*
X012531Y001767D01*
X012690Y001925D02*
X009661Y001925D01*
X009819Y002084D02*
X012849Y002084D01*
X013007Y002242D02*
X009978Y002242D01*
X010136Y002401D02*
X013166Y002401D01*
X013324Y002560D02*
X010295Y002560D01*
X010453Y002718D02*
X013483Y002718D01*
X013601Y002877D02*
X010612Y002877D01*
X010771Y003035D02*
X013715Y003035D01*
X014648Y003035D02*
X019201Y003035D01*
X019201Y002877D02*
X014761Y002877D01*
X014761Y002718D02*
X019201Y002718D01*
X019201Y002560D02*
X014761Y002560D01*
X014721Y002401D02*
X019201Y002401D01*
X019201Y002242D02*
X014563Y002242D01*
X014319Y002084D02*
X019201Y002084D01*
X019201Y001925D02*
X014161Y001925D01*
X014002Y001767D02*
X019201Y001767D01*
X019201Y001608D02*
X013844Y001608D01*
X013685Y001450D02*
X019201Y001450D01*
X019201Y001291D02*
X013527Y001291D01*
X013368Y001133D02*
X019201Y001133D01*
X019201Y000974D02*
X013209Y000974D01*
X013051Y000816D02*
X019201Y000816D01*
X016587Y005730D02*
X015453Y005730D01*
X014910Y005730D02*
X013453Y005730D01*
X012910Y005730D02*
X010453Y005730D01*
X010337Y006206D02*
X007026Y006206D01*
X007185Y006365D02*
X010178Y006365D01*
X010101Y006523D02*
X007261Y006523D01*
X007417Y006682D02*
X009946Y006682D01*
X009787Y006840D02*
X007576Y006840D01*
X007734Y006999D02*
X009629Y006999D01*
X009385Y007157D02*
X007893Y007157D01*
X008051Y007316D02*
X009227Y007316D01*
X009101Y007474D02*
X008158Y007474D01*
X008201Y007633D02*
X009101Y007633D01*
X009101Y007791D02*
X008201Y007791D01*
X008201Y007950D02*
X009130Y007950D01*
X009161Y008109D02*
X008201Y008109D01*
X008201Y008267D02*
X009161Y008267D01*
X009161Y008426D02*
X008201Y008426D01*
X008201Y008584D02*
X009161Y008584D01*
X009161Y008743D02*
X008201Y008743D01*
X008221Y008901D02*
X009210Y008901D01*
X009325Y009060D02*
X008261Y009060D01*
X008261Y009218D02*
X009483Y009218D01*
X009642Y009377D02*
X008261Y009377D01*
X008148Y009535D02*
X009800Y009535D01*
X010060Y009694D02*
X007989Y009694D01*
X007965Y010645D02*
X012910Y010645D01*
X012751Y010487D02*
X003774Y010487D01*
X003816Y010328D02*
X012593Y010328D01*
X013069Y010804D02*
X008124Y010804D01*
X008261Y010962D02*
X013142Y010962D01*
X013301Y011121D02*
X008261Y011121D01*
X007397Y010645D02*
X005465Y010645D01*
X004897Y010645D02*
X003881Y010645D01*
X003816Y010170D02*
X011349Y010170D01*
X011191Y010011D02*
X003816Y010011D01*
X003751Y009853D02*
X011101Y009853D01*
X011511Y009060D02*
X012568Y009060D01*
X012641Y008901D02*
X011471Y008901D01*
X011313Y008743D02*
X012800Y008743D01*
X013043Y008584D02*
X010320Y008584D01*
X010201Y008426D02*
X013202Y008426D01*
X013360Y008267D02*
X010201Y008267D01*
X010201Y008109D02*
X013519Y008109D01*
X013677Y007950D02*
X010233Y007950D01*
X010307Y007791D02*
X013836Y007791D01*
X013994Y007633D02*
X010465Y007633D01*
X010624Y007474D02*
X014153Y007474D01*
X014312Y007316D02*
X010782Y007316D01*
X011026Y007157D02*
X014470Y007157D01*
X014629Y006999D02*
X011184Y006999D01*
X011261Y006840D02*
X014787Y006840D01*
X015029Y006682D02*
X011261Y006682D01*
X011261Y006523D02*
X017661Y006523D01*
X017661Y006365D02*
X011185Y006365D01*
X011026Y006206D02*
X017661Y006206D01*
X017661Y006048D02*
X005701Y006048D01*
X005701Y006206D02*
X006337Y006206D01*
X006178Y006365D02*
X005701Y006365D01*
X005701Y006523D02*
X006101Y006523D01*
X006101Y006682D02*
X005701Y006682D01*
X005701Y006840D02*
X006101Y006840D01*
X006179Y006999D02*
X005761Y006999D01*
X005761Y007157D02*
X006337Y007157D01*
X006581Y007316D02*
X005761Y007316D01*
X005709Y007474D02*
X006739Y007474D01*
X006898Y007633D02*
X005550Y007633D01*
X004813Y007633D02*
X004368Y007633D01*
X004527Y007791D02*
X007056Y007791D01*
X007161Y007950D02*
X004685Y007950D01*
X004844Y008109D02*
X007161Y008109D01*
X007161Y008267D02*
X005002Y008267D01*
X005161Y008426D02*
X007161Y008426D01*
X007161Y008584D02*
X005320Y008584D01*
X004483Y009218D02*
X000661Y009218D01*
X000661Y009060D02*
X004324Y009060D01*
X004166Y008901D02*
X000661Y008901D01*
X000661Y008743D02*
X004007Y008743D01*
X003849Y008584D02*
X000661Y008584D01*
X000661Y008426D02*
X003690Y008426D01*
X003532Y008267D02*
X000661Y008267D01*
X000661Y008109D02*
X003373Y008109D01*
X003230Y007950D02*
X000661Y007950D01*
X000661Y007791D02*
X003164Y007791D01*
X003161Y007633D02*
X000661Y007633D01*
X000661Y007474D02*
X003161Y007474D01*
X003161Y007316D02*
X000661Y007316D01*
X000661Y007157D02*
X003161Y007157D01*
X003161Y006999D02*
X000661Y006999D01*
X000661Y006840D02*
X003161Y006840D01*
X003161Y006682D02*
X000661Y006682D01*
X000661Y006523D02*
X003161Y006523D01*
X003161Y006365D02*
X000661Y006365D01*
X000661Y006206D02*
X002029Y006206D01*
X001871Y006048D02*
X000661Y006048D01*
X000661Y005889D02*
X001796Y005889D01*
X001761Y005730D02*
X000661Y005730D01*
X000661Y005572D02*
X001761Y005572D01*
X001821Y005413D02*
X000661Y005413D01*
X000661Y005255D02*
X001931Y005255D01*
X001919Y005096D02*
X000661Y005096D01*
X000661Y004938D02*
X001816Y004938D01*
X001761Y004779D02*
X000661Y004779D01*
X000661Y004621D02*
X001761Y004621D01*
X001801Y004462D02*
X000661Y004462D01*
X000661Y004304D02*
X001882Y004304D01*
X001968Y004145D02*
X000661Y004145D01*
X000661Y003986D02*
X001837Y003986D01*
X001771Y003828D02*
X000661Y003828D01*
X000661Y003669D02*
X001761Y003669D01*
X001781Y003511D02*
X000661Y003511D01*
X000661Y003352D02*
X001847Y003352D01*
X001992Y003194D02*
X000661Y003194D01*
X000661Y003035D02*
X001858Y003035D01*
X001791Y002877D02*
X000661Y002877D01*
X000661Y002718D02*
X001761Y002718D01*
X001761Y002560D02*
X000661Y002560D01*
X000661Y002401D02*
X001826Y002401D01*
X001944Y002242D02*
X000661Y002242D01*
X000661Y002084D02*
X002204Y002084D01*
X003159Y002084D02*
X004161Y002084D01*
X004161Y002242D02*
X003419Y002242D01*
X003536Y002401D02*
X004210Y002401D01*
X004324Y002560D02*
X003601Y002560D01*
X003601Y002718D02*
X004483Y002718D01*
X004641Y002877D02*
X003572Y002877D01*
X003504Y003035D02*
X004800Y003035D01*
X004863Y003194D02*
X004958Y003194D01*
X005088Y003352D02*
X005101Y003352D01*
X004568Y004304D02*
X003539Y004304D01*
X003697Y004462D02*
X004642Y004462D01*
X004661Y004621D02*
X003856Y004621D01*
X004014Y004779D02*
X004661Y004779D01*
X004661Y004938D02*
X004143Y004938D01*
X004201Y005096D02*
X004661Y005096D01*
X004661Y005255D02*
X004201Y005255D01*
X004201Y005413D02*
X004661Y005413D01*
X004661Y005572D02*
X004201Y005572D01*
X004201Y005730D02*
X004661Y005730D01*
X004661Y005889D02*
X004201Y005889D01*
X004201Y006048D02*
X004661Y006048D01*
X004661Y006206D02*
X004201Y006206D01*
X004201Y006365D02*
X004661Y006365D01*
X004661Y006523D02*
X004201Y006523D01*
X004201Y006682D02*
X004661Y006682D01*
X004661Y006840D02*
X004201Y006840D01*
X004201Y006999D02*
X004601Y006999D01*
X004601Y007157D02*
X004201Y007157D01*
X004201Y007316D02*
X004601Y007316D01*
X004654Y007474D02*
X004210Y007474D01*
X005701Y005889D02*
X017661Y005889D01*
X014800Y008743D02*
X014355Y008743D01*
X014197Y008901D02*
X014641Y008901D01*
X014568Y009060D02*
X014038Y009060D01*
X013880Y009218D02*
X014409Y009218D01*
X014251Y009377D02*
X013761Y009377D01*
X013648Y009535D02*
X014179Y009535D01*
X014161Y009694D02*
X013489Y009694D01*
X013588Y009853D02*
X014161Y009853D01*
X014161Y010011D02*
X013746Y010011D01*
X013990Y010170D02*
X014161Y010170D01*
X014148Y010328D02*
X014161Y010328D01*
X014062Y011121D02*
X014301Y011121D01*
X007435Y011755D02*
X005428Y011755D01*
X004935Y011755D02*
X000661Y011755D01*
X000661Y011597D02*
X003361Y011597D01*
X003203Y011438D02*
X000661Y011438D01*
X000661Y011279D02*
X003044Y011279D01*
X002886Y011121D02*
X000661Y011121D01*
X000661Y010962D02*
X002735Y010962D01*
X002669Y010804D02*
X000661Y010804D01*
X000661Y010645D02*
X002661Y010645D01*
X002589Y010487D02*
X000661Y010487D01*
X000661Y010328D02*
X002546Y010328D01*
X002546Y010170D02*
X000661Y010170D01*
X000661Y010011D02*
X002546Y010011D01*
X002612Y009853D02*
X000661Y009853D01*
X000661Y009694D02*
X002771Y009694D01*
X003592Y009694D02*
X005060Y009694D01*
X004800Y009535D02*
X000661Y009535D01*
X000661Y009377D02*
X004642Y009377D01*
X005701Y005730D02*
X009910Y005730D01*
X009337Y005572D02*
X005701Y005572D01*
X005701Y005413D02*
X009178Y005413D01*
X009019Y005255D02*
X005701Y005255D01*
X005701Y005096D02*
X008861Y005096D01*
X008702Y004938D02*
X005701Y004938D01*
X005701Y004779D02*
X008544Y004779D01*
X005800Y004621D02*
X005701Y004621D01*
X004105Y001925D02*
X000661Y001925D01*
X000661Y001767D02*
X004101Y001767D01*
X004101Y001608D02*
X000661Y001608D01*
X000661Y001450D02*
X004101Y001450D01*
X004251Y001291D02*
X000661Y001291D01*
X000661Y001133D02*
X004410Y001133D01*
X000661Y000974D02*
X009601Y000974D01*
X009727Y000816D02*
X000661Y000816D01*
D15*
X002181Y012401D03*
X017931Y001181D03*
D16*
X017181Y003681D02*
X014181Y003681D01*
X010681Y003681D01*
X008681Y001681D01*
X010181Y001181D02*
X012681Y001181D01*
X014181Y002681D01*
X017181Y003681D02*
X018181Y004681D01*
X018181Y007681D01*
X017681Y008181D01*
X017181Y008181D01*
X017181Y007181D02*
X015181Y007181D01*
X013181Y009181D01*
X012681Y009681D01*
X013681Y010681D01*
X014681Y010681D02*
X014681Y009681D01*
X015181Y009181D01*
X012681Y009681D02*
X011681Y009681D01*
X010931Y009181D02*
X010181Y009181D01*
X009681Y008681D01*
X009681Y007681D01*
X010681Y006681D01*
X010181Y005181D02*
X009681Y005181D01*
X008681Y004181D01*
X006181Y004181D01*
X005181Y004181D02*
X004681Y003681D01*
X002681Y003681D01*
X002681Y004681D02*
X003181Y004681D01*
X003681Y005181D01*
X003681Y007681D01*
X005181Y009181D01*
X007681Y009181D01*
X007681Y007681D01*
X006681Y006681D01*
X005181Y007181D02*
X005181Y004181D01*
X005681Y003431D02*
X005681Y003181D01*
X004681Y002181D01*
X004681Y001681D01*
X010181Y005181D02*
X013181Y005181D01*
X017181Y005181D01*
X007681Y011181D02*
X005181Y011181D01*
X003681Y011181D01*
X003181Y010681D01*
X003181Y010181D01*
M02*
