%
M48
M72
T01C0.0320
T02C0.0400
T03C0.1102
%
T01
X4681Y1681
X5681Y3431
X5181Y4181
X6181Y4181
X6681Y6681
X5181Y7181
X3181Y9181
X3181Y10181
X5181Y11181
X7681Y11181
X9681Y11681
X11681Y9681
X10931Y9181
X11681Y8681
X13181Y9181
X15181Y9181
X14681Y10681
X13681Y10681
X9681Y7681
X10681Y6681
X10181Y5181
X13181Y5181
X15181Y5181
X14181Y3681
X14181Y2681
X10181Y1181
X8681Y1681
X7681Y9181
T02
X2681Y2681
X2681Y3681
X2681Y4681
X2681Y5681
X2681Y6681
X17181Y6181
X17181Y5181
X17181Y7181
X17181Y8181
T03
X17931Y1181
X2181Y12401
M30
